<svg width="392" height="120" viewBox="0 0 392 120" fill="none" xmlns="http://www.w3.org/2000/svg">
<path d="M128.45 33.65V6.79004H138.79C147.14 6.79004 151.32 11.27 151.32 20.23C151.32 29.19 147.14 33.65 138.79 33.65H128.45ZM138.79 28.3C143.55 28.29 145.94 25.6 145.95 20.23C145.94 14.86 143.55 12.18 138.79 12.18H133.82V28.3H138.79Z" fill="white"/>
<path d="M160.43 6.79004H155.08V33.65H160.43V6.79004Z" fill="white"/>
<path d="M164.62 33.6501V6.81006H166.41L183.23 23.6301V6.81006H188.6V33.6501H186.63L169.99 17.0101V33.6501H164.62Z" fill="white"/>
<path d="M190.54 33.6501L201.28 6.81006H206.65L217.37 33.6401L211.66 33.6601L210.05 29.5401H197.88L196.27 33.6601H190.54V33.6501ZM204.11 13.9601L200.03 24.1601H208.08L204.11 13.9601Z" fill="white"/>
<path d="M219.24 33.6501V6.81006H221.03L232.66 20.0501L244.31 6.81006H246.1V33.6501H240.73L240.71 18.0801L232.66 27.0301L224.61 18.0801V33.6501H219.24Z" fill="white"/>
<path d="M255.6 6.79004H250.25V33.65H255.6V6.79004Z" fill="white"/>
<path d="M262.25 29.8001C259.68 27.2401 258.39 24.0301 258.39 20.1801C258.4 16.4101 259.69 13.2401 262.26 10.6701C264.83 8.10006 268 6.81006 271.8 6.81006C275.6 6.81006 278.92 8.00006 281.66 10.3901L278.08 14.3101C276.25 12.8801 274.16 12.1601 271.8 12.1601C269.39 12.1701 267.45 12.9201 265.98 14.4101C264.51 15.9001 263.77 17.8101 263.77 20.1401C263.78 22.6301 264.53 24.6101 266.01 26.0801C267.49 27.5501 269.43 28.2801 271.84 28.2801C274.25 28.2801 276.33 27.5701 278.09 26.1501L281.67 30.0701C278.94 32.4601 275.65 33.6501 271.81 33.6501C268.02 33.6401 264.83 32.3501 262.26 29.7901" fill="white"/>
<path d="M284.43 33.65V6.81004H289.8V17.55H302.31V6.79004H307.67V33.64L302.31 33.65V22.56H289.8V33.65H284.43Z" fill="white"/>
<path d="M312.02 33.6501V6.83006L331.74 6.81006V11.8201H317.38V17.5501H328.14V22.5401H317.38V28.6401H331.7V33.6501H312.02Z" fill="white"/>
<path d="M132.18 45.97L139.8 65.64L147.57 45.97H153.3L142.58 72.82H137.21L126.45 45.97H132.18Z" fill="white"/>
<path d="M155.33 72.82V45.99L175.05 45.97V50.98H160.7V56.71H171.46V61.7H160.7V67.81H175.02V72.82H155.33Z" fill="white"/>
<path d="M194.68 61.11L201.37 72.81H195.21L188.79 61.71H183.89V72.81H178.52V45.97H190.22C196.48 45.97 199.62 48.55 199.62 53.7C199.62 57.58 197.97 60.05 194.68 61.11ZM183.89 56.71H191.41C193.57 56.67 194.68 55.69 194.74 53.76C194.68 51.99 193.59 51.08 191.46 51H183.89V56.71Z" fill="white"/>
<path d="M224.27 45.97V50.98H215.33V72.82H209.96V50.98H201.01V45.97H224.27Z" fill="white"/>
<path d="M231.48 45.95H226.13V72.8099H231.48V45.95Z" fill="white"/>
<path d="M238.12 68.96C235.55 66.4 234.26 63.19 234.26 59.34C234.27 55.57 235.56 52.4 238.13 49.83C240.7 47.26 243.87 45.97 247.67 45.97C251.47 45.97 254.79 47.16 257.53 49.55L253.95 53.47C252.12 52.04 250.03 51.32 247.67 51.32C245.26 51.33 243.32 52.08 241.85 53.57C240.38 55.06 239.64 56.97 239.64 59.3C239.65 61.79 240.4 63.77 241.88 65.24C243.36 66.71 245.3 67.44 247.71 67.44C250.12 67.44 252.2 66.73 253.96 65.31L257.54 69.23C254.81 71.62 251.52 72.81 247.68 72.81C243.89 72.8 240.7 71.51 238.13 68.95" fill="white"/>
<path d="M258.91 72.82L269.65 45.98H275.02L285.74 72.81L280.03 72.83L278.42 68.71H266.25L264.64 72.83H258.91V72.82ZM272.48 53.13L268.4 63.33H276.45L272.48 53.13Z" fill="white"/>
<path d="M293.01 45.97V67.81H307.33V72.82H287.64V45.97H293.01Z" fill="white"/>
<path d="M314.72 45.95H309.37V72.8099H314.72V45.95Z" fill="white"/>
<path d="M108.76 112.83H7.96997V12.04L108.76 112.83ZM13.01 107.79H96.6L13.01 24.2V107.79Z" fill="white"/>
<path d="M114.01 107.58L13.22 6.79004H114.01V107.58ZM25.38 11.83L108.97 95.42V11.83H25.38Z" fill="#EA5C0C"/>
<path d="M128.81 112.83V86.01H147.67V91.02H134.17V96.74H144.13V101.73H134.17V112.83H128.81Z" fill="white"/>
<path d="M154.05 108.98C151.49 106.41 150.21 103.23 150.21 99.42C150.21 95.61 151.49 92.42 154.05 89.85C156.61 87.29 159.8 86.01 163.62 86.01C167.44 86.01 170.62 87.29 173.19 89.85C175.75 92.41 177.03 95.6 177.03 99.42C177.03 103.24 175.75 106.42 173.19 108.99C170.63 111.55 167.44 112.83 163.62 112.83C159.8 112.83 156.62 111.55 154.05 108.98ZM163.63 107.83C166 107.83 167.93 107.03 169.42 105.42C170.91 103.81 171.66 101.81 171.66 99.43C171.66 97.05 170.91 95.05 169.42 93.44C167.93 91.83 165.99 91.03 163.59 91.03C161.19 91.03 159.29 91.83 157.8 93.44C156.31 95.05 155.56 97.05 155.56 99.43C155.56 101.81 156.3 103.81 157.8 105.42C159.29 107.03 161.23 107.83 163.63 107.83Z" fill="white"/>
<path d="M197.16 101.14L203.85 112.83H197.7L191.28 101.74H186.38V112.83H181.02V86.01H192.71C198.97 86.01 202.1 88.58 202.1 93.73C202.1 97.6 200.46 100.07 197.16 101.13V101.14ZM186.38 96.74H193.89C196.05 96.7 197.16 95.72 197.22 93.79C197.16 92.03 196.07 91.11 193.95 91.04H186.39V96.74H186.38Z" fill="white"/>
<path d="M206.64 112.83V86.01H208.43L220.05 99.24L231.69 86.01H233.48V112.83H228.12L228.1 97.27L220.05 106.21L212 97.27V112.83H206.64Z" fill="white"/>
<path d="M237.41 112.83L248.14 86.01H253.5L264.21 112.81L258.51 112.83L256.9 108.72H244.74L243.13 112.83H237.41ZM250.96 93.16L246.88 103.35H254.93L250.96 93.16Z" fill="white"/>
<path d="M289.25 112.83H267.77L267.79 111.04L280.29 91.01H267.79L267.77 86H289.25V87.97L276.7 107.82H289.25V112.83Z" fill="white"/>
<path d="M294.6 85.99H299.95V112.83H294.6V85.99Z" fill="white"/>
<path d="M307.81 108.98C305.25 106.41 303.97 103.23 303.97 99.42C303.97 95.61 305.25 92.42 307.81 89.85C310.37 87.29 313.56 86.01 317.38 86.01C321.2 86.01 324.38 87.29 326.95 89.85C329.51 92.41 330.79 95.6 330.79 99.42C330.79 103.24 329.51 106.42 326.95 108.99C324.39 111.55 321.2 112.83 317.38 112.83C313.56 112.83 310.38 111.55 307.81 108.98ZM317.39 107.83C319.76 107.83 321.69 107.03 323.18 105.42C324.67 103.81 325.42 101.81 325.42 99.43C325.42 97.05 324.68 95.05 323.18 93.44C321.69 91.83 319.75 91.03 317.35 91.03C314.95 91.03 313.05 91.83 311.56 93.44C310.07 95.05 309.32 97.05 309.32 99.43C309.32 101.81 310.07 103.81 311.56 105.42C313.05 107.03 314.99 107.83 317.39 107.83Z" fill="white"/>
<path d="M334.78 112.83V86.01H336.57L353.38 102.82V86.01H358.74V112.83H356.77L340.14 96.2V112.83H334.78Z" fill="white"/>
<path d="M364.23 112.83V86.03L383.93 86.01V91.02H369.59V96.74H380.34V101.73H369.59V107.83H383.89V112.84H364.22L364.23 112.83Z" fill="white"/>
</svg>
